<?xml version="1.0" encoding="UTF-8" standalone="yes"?>
<!DOCTYPE svg PUBLIC "-//W3C//DTD SVG 1.1//EN" "http://www.w3.org/Graphics/SVG/1.1/DTD/svg11.dtd">

<svg width="500" height="500" viewBox="0 0 500 500" xmlns="http://www.w3.org/2000/svg" xmlns:xlink="http://www.w3.org/1999/xlink" version="1.1" baseProfile="full">
    <g transform="scale(1,-1) translate(0,-500)">
        <path d="M 1.202126 17.808921 L 1.314819 17.858864 L 1.395227 17.932908 L 1.425541 18.038061 L 1.404016 18.202856 L 1.330653 18.427294 L 1.205452 18.711376 L 1.049941 18.592846 L 1.009340 18.508989 L 1.000000 18.408080 L 1.075106 18.155108 L 1.175676 17.925024 L 1.198166 17.852725 L 1.202126 17.808921 Z M 2.932537 10.383765 L 3.053680 10.408548 L 3.170048 10.466222 L 3.281641 10.556786 L 3.388460 10.680243 L 3.741920 11.153754 L 3.617245 11.353652 L 3.507263 11.588667 L 3.331378 12.164047 L 3.214264 12.879898 L 3.155920 13.736220 L 3.107846 14.505276 L 3.053216 14.834085 L 2.978190 15.125750 L 2.882769 15.380269 L 2.766952 15.597644 L 2.630739 15.777875 L 2.474131 15.920962 L 2.180991 16.089506 L 1.818127 16.209547 L 1.640850 15.770007 L 1.542200 15.301102 L 1.522179 14.802831 L 1.580786 14.275192 L 1.665385 13.907253 L 1.804891 13.458529 L 2.248628 12.318717 L 2.696381 11.184285 L 2.840908 10.742287 L 2.932537 10.383765 Z M 6.942097 21.232972 L 7.243423 21.008043 L 7.365717 21.561945 L 7.413098 21.987424 L 7.385566 22.284484 L 7.343707 22.384856 L 7.283120 22.453125 L 7.167509 22.505908 L 7.035907 22.503595 L 6.915143 22.459676 L 6.832044 22.387640 L 6.759959 22.270726 L 6.712399 22.145978 L 6.690860 21.872980 L 6.767426 21.568645 L 6.942097 21.232972 Z M 7.391134 12.719825 L 8.088053 13.339152 L 8.042881 13.716413 L 8.021656 14.193103 L 8.051049 15.444780 L 8.080442 16.696457 L 8.059217 17.173147 L 8.014045 17.550408 L 7.876925 18.057053 L 7.778965 18.283618 L 7.661406 18.492344 L 7.524247 18.683232 L 7.367487 18.856282 L 7.191127 19.011494 L 6.995167 19.148868 L 6.805057 18.816313 L 6.649571 18.464197 L 6.528711 18.092520 L 6.442475 17.701281 L 6.390865 17.290481 L 6.373879 16.860118 L 6.391518 16.410193 L 6.443782 15.940705 L 6.572453 15.310491 L 6.773235 14.563609 L 7.046128 13.700054 L 7.391134 12.719825 Z M 1.626643 5.895423 L 1.987314 5.112976 L 2.188964 4.760831 L 2.404823 4.434738 L 2.634892 4.134696 L 2.879170 3.860706 L 3.137659 3.612766 L 3.410358 3.390877 L 3.854844 3.105169 L 4.327369 2.890700 L 4.827933 2.747471 L 5.356540 2.675480 L 5.727019 2.602124 L 6.177603 2.439644 L 6.708293 2.188041 L 7.319093 1.847314 L 7.927543 1.506246 L 8.451185 1.253620 L 8.890022 1.089435 L 9.244056 1.013691 L 9.498824 1.000000 L 9.744602 1.027583 L 9.981388 1.096441 L 10.209184 1.206573 L 10.427990 1.357981 L 10.637805 1.550663 L 10.838629 1.784621 L 11.030464 2.059854 L 11.613193 2.846118 L 11.847448 3.217465 L 12.043629 3.574288 L 12.201738 3.916589 L 12.321774 4.244367 L 12.403737 4.557623 L 12.447628 4.856357 L 12.295138 5.774575 L 12.226437 6.016482 L 12.134318 6.221405 L 12.018781 6.389345 L 11.879827 6.520301 L 11.717114 6.616623 L 11.530301 6.680660 L 11.257759 8.425849 L 11.143526 8.907031 L 10.991213 9.303520 L 10.800818 9.615318 L 10.572340 9.842427 L 10.299358 10.004303 L 9.996972 10.104337 L 9.779450 9.979202 L 9.555978 9.886789 L 9.326557 9.827096 L 9.091186 9.800123 L 8.849866 9.805871 L 8.602597 9.844340 L 8.349377 9.915529 L 8.090207 10.019438 L 7.269975 10.480889 L 6.444438 10.912783 L 6.242548 11.000120 L 6.050976 11.053571 L 5.869720 11.073136 L 5.698781 11.058816 L 5.538159 11.010610 L 5.387853 10.928518 L 5.247864 10.812541 L 5.118191 10.662677 L 4.984697 10.458585 L 4.857342 10.212205 L 4.621049 9.592579 L 4.253691 9.584528 L 3.903717 9.535222 L 3.571128 9.444660 L 3.255924 9.312843 L 2.958103 9.139769 L 2.677666 8.925440 L 2.414612 8.669854 L 2.168940 8.373013 L 1.970682 8.080056 L 1.809702 7.782316 L 1.685999 7.479793 L 1.599573 7.172487 L 1.550425 6.860397 L 1.538553 6.543524 L 1.563959 6.221866 L 1.626643 5.895423 Z M 10.508356 12.001711 L 10.661430 12.380764 L 10.891178 12.851308 L 11.580702 14.066880 L 12.291674 15.299958 L 12.738838 16.202076 L 12.943264 16.809880 L 13.065160 17.391308 L 13.104524 17.946361 L 13.061359 18.475042 L 12.958265 18.596512 L 12.842999 18.682030 L 12.715561 18.731598 L 12.575950 18.745214 L 12.424166 18.722880 L 12.260209 18.664594 L 11.895776 18.440169 L 11.672656 18.118115 L 11.469222 17.776130 L 11.285474 17.414215 L 11.121412 17.032368 L 10.852343 16.208880 L 10.662017 15.305663 L 10.584892 14.671961 L 10.533573 13.910070 L 10.508062 13.019988 L 10.508356 12.001711 Z M 13.890743 19.900426 L 14.041405 19.787962 L 14.274901 19.865038 L 14.449130 20.019869 L 14.549412 20.213143 L 14.593195 20.448590 L 14.580479 20.726212 L 14.511265 21.046008 L 14.415225 21.054855 L 14.325969 21.033502 L 14.243496 20.981948 L 14.167805 20.900192 L 13.948333 20.561277 L 14.010936 20.196143 L 13.998547 20.033620 L 13.890743 19.900426 Z M 12.758604 9.852755 L 14.925148 11.453066 L 15.516254 11.950284 L 16.034868 12.434577 L 16.480993 12.905948 L 16.854631 13.364399 L 17.185223 13.854982 L 17.454011 14.358182 L 17.660995 14.873999 L 17.806176 15.402437 L 17.711670 15.623805 L 17.579725 15.772571 L 17.450632 15.847986 L 17.310874 15.889468 L 17.160449 15.897017 L 16.999358 15.870633 L 16.827600 15.810315 L 16.645176 15.716064 L 16.248327 15.425762 L 12.665532 10.626071 Z M 18.580686 17.338009 L 18.860490 17.129146 L 19.081934 17.190080 L 19.252147 17.339532 L 19.295571 17.436991 L 19.345512 17.621756 L 19.464944 18.253204 L 19.254903 18.345055 L 19.065855 18.358392 L 18.897802 18.293214 L 18.750741 18.149522 L 18.643714 17.969663 L 18.579696 17.774458 L 18.558687 17.563907 L 18.580686 17.338009 Z M 13.277013 6.281741 L 13.946018 6.294001 L 14.583124 6.381392 L 15.188332 6.543915 L 15.761642 6.781569 L 16.303054 7.094355 L 16.812571 7.482274 L 17.290191 7.945325 L 17.735915 8.483509 L 18.037083 8.920644 L 18.297932 9.371117 L 18.076329 9.972246 L 15.753056 8.790574 L 15.116743 8.389945 L 14.570428 7.980793 L 14.114110 7.563115 L 13.747785 7.136911 L 13.477461 6.718648 L 13.277013 6.281741 Z M 19.788168 10.738910 L 19.906697 10.583399 L 19.990554 10.542798 L 20.091463 10.533458 L 20.344435 10.608565 L 20.578536 10.714515 L 20.706689 10.757109 L 20.701919 10.750719 L 20.700476 10.748785 L 20.699660 10.747692 L 20.699911 10.748028 L 20.702672 10.751727 L 20.715726 10.769215 L 20.738821 10.800154 L 20.931617 11.058434 L 20.995504 11.163663 L 21.026500 11.264117 L 21.024604 11.359796 L 20.989818 11.450700 L 20.815803 11.496805 L 20.648592 11.504316 L 20.488182 11.473234 L 20.334575 11.403557 L 20.187771 11.295286 L 20.047768 11.148422 L 19.914567 10.962963 L 19.788168 10.738910 Z" transform="scale(1.000000,1.000000) translate(263.994353,86.529511)" fill="#f2f4f4" opacity="1.000000"></path>
        <path d="M 154.488822 77.744411 C 154.488822 120.129178 120.129178 154.488822 77.744411 154.488822 C 35.359643 154.488822 1.000000 120.129178 1.000000 77.744411 C 1.000000 35.359643 35.359643 1.000000 77.744411 1.000000 C 120.129178 1.000000 154.488822 35.359643 154.488822 77.744411 Z" transform="scale(1.000000,1.000000) translate(16.448147,93.080994)" opacity="1.000000"></path>
        <path d="M 141.410339 315.403513 L 146.825335 314.334437 L 156.168869 312.557217 L 164.417701 310.477595 L 167.830630 309.069181 L 170.769249 307.415016 L 171.896547 305.448139 L 172.357054 303.328345 L 172.150771 301.055623 L 171.277696 298.629962 L 169.256553 292.962339 L 168.734026 289.418767 L 178.500807 281.047360 L 187.210238 272.266574 L 194.862323 263.076398 L 201.457069 253.476823 L 206.994481 243.467838 L 211.474564 233.049434 L 214.897324 222.221601 L 217.262767 210.984329 L 218.350843 204.262319 L 218.398281 195.136161 L 217.405083 183.605814 L 215.371250 169.671238 L 212.578070 163.693878 L 208.996958 157.681330 L 204.627900 151.633574 L 199.470880 145.550587 L 179.879227 125.581969 L 177.886994 123.725594 L 173.979444 120.479864 L 160.418308 109.820278 L 154.859193 105.117266 L 150.280509 100.356679 L 146.682240 95.538499 L 144.064372 90.662706 L 135.281347 71.709379 L 127.081009 55.440429 L 119.463325 41.855799 L 112.428267 30.955435 L 105.190828 23.540422 L 97.777076 17.174154 L 90.187004 11.856627 L 82.420605 7.587839 L 74.477871 4.367786 L 66.358795 2.196464 L 58.063371 1.073870 L 49.591590 1.000000 L 42.917329 2.409368 L 36.113365 4.533636 L 29.179671 7.372815 L 22.116222 10.926913 L 22.487443 11.696798 L 17.283859 14.680287 L 17.551534 15.173924 L 17.412779 15.685615 L 15.915977 16.763167 L 14.761145 17.320001 L 15.317976 18.474828 L 12.712758 20.205442 L 8.746510 23.541197 L 9.488952 25.080967 L 5.639525 26.937072 L 6.412035 28.047212 L 5.704892 29.040533 L 4.619662 29.741720 L 4.348356 29.917017 L 4.280529 29.960841 L 4.257921 29.975449 L 3.103096 30.532279 L 3.606666 32.068620 L 3.261260 32.828214 L 2.106435 33.385044 L 2.898714 34.782177 L 2.649543 35.495368 L 1.879662 35.866587 L 2.930583 37.554141 L 2.687463 39.509822 L 1.976075 42.462253 L 1.821435 43.248479 L 1.000000 43.881775 L 2.512326 45.050323 L 2.984119 47.135728 L 2.914605 50.312410 L 2.746330 55.375166 L 4.948016 65.107065 L 8.404202 73.996853 L 12.401241 80.994990 L 17.153523 86.976578 L 22.661069 91.941637 L 28.923897 95.890189 L 33.868881 97.397736 L 38.719104 98.432047 L 43.474572 98.993121 L 48.135289 99.080960 L 52.701260 98.695562 L 57.172488 97.836928 L 61.548978 96.505056 L 65.830735 94.699948 L 69.587357 92.651373 L 73.158365 90.217851 L 76.238518 87.027654 L 78.701279 83.571758 L 80.546652 79.850160 L 81.774635 75.862856 L 82.385231 71.609841 L 82.378441 67.091113 L 81.754265 62.306667 L 80.512704 57.256499 L 78.327044 52.231607 L 74.870557 47.522976 L 70.143229 43.130588 L 64.145045 39.054426 L 58.530185 38.233127 L 53.309769 38.229832 L 48.483778 39.044544 L 44.052195 40.677263 L 41.135062 42.498971 L 38.542749 44.994332 L 37.389024 46.721904 L 36.357766 49.072426 L 34.662633 55.642366 L 37.329976 62.896174 L 40.217222 68.146161 L 43.324384 71.392340 L 44.960437 72.264007 L 46.651473 72.634728 L 48.801754 71.805484 L 50.076425 70.390254 L 50.475490 68.389033 L 49.998952 65.801812 L 47.848537 61.649495 L 46.621848 58.059982 L 46.318880 55.033261 L 46.939631 52.569320 L 49.594920 51.096256 L 52.157844 50.231126 L 54.628415 49.973927 L 57.006641 50.324658 L 59.151592 51.114040 L 60.922336 52.172809 L 62.318879 53.500967 L 63.341227 55.098519 L 63.320805 55.064813 L 63.305942 55.059933 L 63.296638 55.083877 L 63.292894 55.136647 L 63.333506 55.635977 L 63.681569 58.018251 L 65.445051 68.317293 L 63.079199 72.512270 L 60.511402 75.796423 L 57.741652 78.169763 L 54.769938 79.632299 L 50.673543 80.591890 L 46.832553 80.820462 L 43.246964 80.318011 L 39.916773 79.084537 L 36.841979 77.120038 L 34.022576 74.424513 L 31.458563 70.997959 L 29.149937 66.840376 L 27.232345 61.449006 L 26.305465 55.283437 L 26.369293 48.343646 L 27.423826 40.629607 L 31.347912 35.238496 L 36.067688 31.005663 L 41.583174 27.931094 L 47.894390 26.014775 L 53.827566 25.466824 L 59.549382 26.325487 L 65.059858 28.590769 L 70.359014 32.262675 L 77.233271 39.385726 L 86.527339 51.035303 L 92.175659 65.332379 L 94.234846 72.093604 L 95.784053 78.596628 L 96.823280 84.841458 L 97.352528 90.828098 L 97.371799 96.556557 L 96.881094 102.026838 L 97.660066 119.324159 L 97.837517 135.250911 L 97.413445 149.807154 L 96.387849 162.992943 L 95.573780 165.609422 L 93.598836 167.540232 L 90.463008 168.785382 L 86.166288 169.344878 L 80.713360 166.399488 L 72.686072 163.034854 L 72.043790 163.670721 L 71.656723 164.835881 L 71.648238 168.754103 L 70.378218 167.350105 L 68.424251 166.987554 L 68.129541 167.544789 L 68.015297 168.845276 L 68.328206 173.676027 L 66.908685 172.699954 L 64.533667 171.710153 L 63.103034 173.170936 L 62.674304 174.741666 L 63.247476 176.422353 L 64.822552 178.213004 L 75.244181 197.858800 L 79.215808 202.467340 L 83.637632 205.672681 L 88.509670 207.474830 L 93.831938 207.873798 L 94.649588 210.000007 L 94.277202 213.470983 L 92.714774 218.286738 L 89.962301 224.447288 L 87.622584 225.990577 L 84.452851 228.764350 L 81.283118 231.538123 L 78.943402 233.081411 L 76.159431 233.949343 L 73.196713 233.954585 L 73.065003 233.923573 L 72.812515 233.880374 L 71.945201 233.757415 L 68.761219 233.365251 L 56.595782 231.995928 L 51.835040 231.593069 L 47.664638 231.676532 L 44.084562 232.246319 L 41.094799 233.302434 L 37.527216 235.497077 L 34.523333 238.368809 L 34.672423 238.801010 L 35.319032 239.527063 L 38.104816 241.860730 L 36.548708 242.077309 L 34.190026 241.613369 L 31.831352 241.149443 L 30.275244 241.366023 L 29.259623 242.211559 L 28.522419 243.634511 L 28.879915 245.359891 L 30.007301 246.714048 L 31.755073 248.124901 L 32.238417 248.573850 L 32.461403 248.851818 L 31.217203 248.977306 L 29.024360 248.611315 L 26.828092 248.484208 L 25.573597 249.326311 L 25.840456 251.540193 L 27.094585 253.218721 L 29.335992 254.361898 L 32.564682 254.969731 L 35.663181 255.492078 L 39.253153 255.065786 L 43.666277 253.886759 L 46.154673 253.635779 L 80.587192 265.025158 L 77.971220 266.672000 L 75.512521 269.013971 L 73.211086 272.051079 L 71.066906 275.783333 L 70.530024 281.557577 L 70.995042 287.441755 L 72.461962 293.435886 L 74.930785 299.539991 L 76.998911 303.183419 L 79.676667 306.799742 L 82.964068 310.388976 L 86.861126 313.951140 L 93.813585 320.621386 L 96.201323 323.636231 L 97.863416 326.437576 L 99.593230 330.763044 L 100.699221 335.270676 L 101.181394 339.960492 L 101.039751 344.832508 L 101.838930 347.412413 L 103.177695 349.020479 L 105.056050 349.656705 L 107.474000 349.321089 L 111.260057 347.302797 L 114.933073 344.004655 L 118.493063 339.426651 L 121.940041 333.568770 L 125.291634 327.697556 L 128.565488 323.079597 L 131.761615 319.714877 L 134.880026 317.603379 L 138.052371 316.310968 Z M 127.757478 281.184769 L 127.281549 284.379517 L 125.963493 286.319751 L 122.725786 285.508705 L 121.823560 285.113477 L 121.399080 284.725111 L 121.024370 282.533563 L 121.357713 280.949507 L 122.399109 279.972936 L 124.148561 279.603842 L 125.240240 279.285024 L 126.205617 279.442239 L 127.044695 280.075486 Z M 98.116901 295.476773 L 98.237248 297.079300 L 97.883275 298.436081 L 97.054980 299.547122 L 95.752364 300.412431 L 92.988966 299.847112 L 91.973303 299.032137 L 91.201658 297.862280 L 91.042228 296.486183 L 91.478267 295.238103 L 92.509777 294.118036 L 94.136761 293.125977 L 95.390848 293.143978 L 96.472232 293.541777 Z" transform="scale(1.000000,1.000000) translate(44.089626,120.648460)" fill="#f2f4f4" opacity="1.000000"></path>
        <path d="M 1.000000 56.178886 C 1.000000 38.831350 9.624764 29.618534 25.698187 29.324508 C 32.264768 32.460786 41.379576 41.085549 48.828235 51.082435 C 48.730226 51.670487 48.240183 52.552565 47.652131 53.140617 C 37.557237 43.731784 28.442430 37.557237 22.855935 36.283124 C 17.857493 37.361220 14.623206 43.535766 14.623206 53.140617 C 14.623206 66.763823 19.131606 80.093003 28.246413 93.226166 C 33.538881 100.870843 40.889532 105.967295 46.770053 105.967295 C 50.200357 105.967295 52.160530 104.399156 52.160530 101.654913 C 52.160530 98.224609 49.318278 93.814218 44.711871 90.089889 C 45.299923 86.659585 48.142174 83.817333 51.474469 83.327290 C 55.884860 87.051620 59.021138 93.422184 59.021138 98.518635 C 59.021138 105.281234 53.630660 109.299590 44.711871 109.299590 C 21.679831 109.299590 1.000000 83.719325 1.000000 56.178886 Z M 89.599845 76.564691 C 86.757594 70.684170 82.837246 63.333519 80.093003 58.727112 C 73.036379 46.966070 68.331962 41.477584 64.509624 40.693515 C 63.627546 40.987541 63.137502 41.673602 63.137502 43.045723 C 63.137502 55.100790 75.976639 72.448327 86.463568 74.114474 C 86.169542 76.564691 81.759151 81.171099 79.112917 81.857160 C 68.527979 81.269108 54.414730 61.275337 54.414730 46.672044 C 54.414730 39.909445 57.747025 35.009011 62.549450 34.812994 C 68.625988 35.793081 77.250752 45.593949 82.543220 57.551007 C 80.093003 51.180443 78.818891 45.887975 78.818891 42.261654 C 78.818891 37.361220 80.583047 35.009011 84.111359 35.009011 C 86.071533 35.009011 88.913785 35.793081 90.481923 36.773168 C 88.717767 37.753254 87.933698 40.301480 87.933698 43.927801 C 87.933698 50.592391 91.560019 62.157415 96.852488 73.134387 C 96.950496 74.408500 92.344088 76.564691 89.599845 76.564691 Z M 128.509291 39.125376 C 131.547560 37.067194 136.055959 35.303037 137.820115 35.303037 C 137.820115 35.303037 138.212150 35.401046 138.212150 35.695072 C 138.212150 36.969185 136.055959 39.125376 136.055959 44.711871 C 136.055959 55.002782 143.602627 65.979754 148.405052 77.446769 C 147.228948 78.916899 142.524532 80.583047 139.094228 80.583047 C 134.683837 76.368674 132.625655 70.684170 131.449551 67.449884 C 129.293360 61.667372 124.490935 55.688843 121.844701 52.062521 C 116.454223 44.711871 113.807989 41.477584 111.847815 40.693515 C 111.651798 40.889532 111.161755 41.477584 111.161755 42.457671 C 111.161755 45.887975 114.004006 54.806764 115.278119 57.747025 C 121.158640 71.664257 126.549117 79.112917 127.725221 80.387030 C 125.765048 82.641229 121.256648 83.425299 119.002449 83.425299 C 110.769720 77.446769 103.811104 60.883303 101.458895 50.984426 C 100.870843 48.240183 100.674826 46.280009 100.674826 42.653688 C 101.752921 38.047280 107.241407 35.205029 111.357772 35.009011 C 112.239850 35.107020 113.905998 36.283124 115.572145 38.047280 C 117.728336 40.595506 124.784961 50.690400 125.863056 50.592391 C 125.569030 49.710313 125.373013 48.534209 125.373013 47.064079 C 125.373013 44.809879 126.059074 41.183558 128.509291 39.125376 Z M 130.469464 7.762599 C 132.331629 4.136278 139.388254 1.000000 145.758818 1.000000 C 150.463235 1.000000 157.519859 3.646234 162.028259 8.644677 C 171.437092 19.033597 176.239517 30.892647 183.198133 49.710313 C 185.158307 55.002782 187.608524 61.569363 192.018914 71.762266 C 191.038827 72.742353 188.000558 73.918457 184.472246 74.114474 C 181.728003 66.861832 176.827569 58.531094 171.241074 52.258539 C 166.340641 46.770053 159.774059 41.183558 157.519859 41.183558 C 157.323842 41.183558 157.127825 41.281567 157.127825 42.163645 C 157.127825 54.218712 176.729560 78.328847 186.138394 78.328847 C 187.118480 78.328847 188.196576 78.132830 188.882637 77.740795 C 187.902550 82.347203 185.746359 84.013351 181.237960 84.013351 C 167.320727 84.013351 149.287130 64.607632 149.287130 49.416287 C 149.287130 43.241740 152.717434 37.753254 157.127825 36.969185 C 160.558128 38.341306 167.320727 42.947714 170.358996 46.182001 C 163.596398 21.287796 152.227391 6.586495 138.702193 6.586495 C 135.859942 6.586495 134.977863 7.076538 131.743577 9.820781 C 131.057516 9.232729 130.469464 8.546668 130.469464 7.762599 Z M 194.273114 38.635333 C 194.371123 36.577150 196.429305 32.264768 197.311383 32.264768 C 197.801426 32.264768 198.781513 33.244855 199.173548 34.126933 C 205.054069 47.946157 215.442988 62.255424 224.753813 69.214040 C 226.125934 70.292136 228.184117 71.566248 228.576151 71.566248 C 228.674160 71.566248 228.968186 71.272222 228.968186 71.174214 C 222.597622 58.335077 217.893205 45.985983 217.893205 42.163645 C 217.893205 39.125376 220.539440 35.989098 223.185674 35.989098 C 225.243856 35.989098 232.692516 39.517411 232.692516 40.497497 C 232.692516 40.791523 232.594507 41.085549 232.006455 42.065636 C 231.712429 42.065636 230.536325 41.281567 228.576151 41.281567 C 227.302039 41.281567 227.008012 41.673602 227.008012 42.947714 C 227.008012 48.240183 237.298924 66.469797 245.335635 75.290578 C 242.395375 79.014908 238.082993 81.465125 234.652689 81.465125 C 228.674160 81.465125 219.167318 73.330405 206.720216 57.452999 C 209.072424 66.861832 212.110693 74.114474 217.109136 83.915342 C 221.715544 92.932140 229.850264 103.615086 239.651132 113.611972 C 237.396932 116.062188 231.418403 118.316388 227.302039 118.316388 C 218.383249 108.123486 209.464459 93.128158 204.171990 79.308934 C 198.193461 63.921572 194.273114 47.848148 194.273114 38.635333 Z M 256.410616 74.506509 C 251.412173 62.451441 247.785852 49.220270 247.785852 42.849706 C 247.785852 38.243298 255.234512 32.656803 261.703085 32.460786 C 263.859276 32.656803 270.915900 37.361220 272.386031 39.615419 C 272.288022 40.007454 271.993996 40.595506 271.699970 41.085549 C 268.955727 38.929359 265.329406 37.361220 261.409059 36.871176 C 259.350876 37.165202 258.174772 38.733341 258.174772 41.673602 C 258.174772 49.710313 262.095119 62.451441 268.563692 74.996552 C 273.072091 75.094561 277.090447 75.780622 280.226725 76.956726 C 280.226725 78.034821 279.736681 79.112917 279.148629 79.700969 C 276.404386 79.406943 273.660143 79.308934 271.111918 79.308934 C 274.346204 84.797420 276.796421 88.619759 280.716768 93.520192 C 279.442655 94.990323 273.170100 97.048505 270.523866 97.048505 C 268.367675 95.872401 262.683171 87.443654 258.762824 79.700969 C 256.116590 79.798977 252.980312 80.093003 249.550009 80.289021 C 249.550009 78.524865 250.236069 75.290578 250.824121 74.506509 Z" transform="scale(1.000000,1.000000) translate(203.747634,115.250787)" opacity="1.000000"></path>
        <path d="M 1.000000 30.402604 C 1.000000 13.055067 9.624764 3.842252 25.698187 3.548226 C 32.264768 6.684503 41.379576 15.309267 48.828235 25.306152 C 48.730226 25.894204 48.240183 26.776282 47.652131 27.364334 C 37.557237 17.955501 28.442430 11.780955 22.855935 10.506842 C 17.857493 11.584937 14.623206 17.759484 14.623206 27.364334 C 14.623206 40.987541 19.131606 54.316721 28.246413 67.449884 C 33.538881 75.094561 40.889532 80.191012 46.770053 80.191012 C 50.200357 80.191012 52.160530 78.622873 52.160530 75.878630 C 52.160530 72.448327 49.318278 68.037936 44.711871 64.313606 C 45.299923 60.883303 48.142174 58.041051 51.474469 57.551007 C 55.884860 61.275337 59.021138 67.645901 59.021138 72.742353 C 59.021138 79.504951 53.630660 83.523307 44.711871 83.523307 C 21.679831 83.523307 1.000000 57.943042 1.000000 30.402604 Z M 53.434643 13.153076 C 54.316721 11.192903 59.119146 8.056625 61.471355 7.860607 C 65.293693 25.894204 69.508066 32.852820 81.857160 41.379576 C 83.131273 37.557237 86.071533 34.126933 89.599845 32.362777 C 91.560019 34.322951 93.520192 36.969185 93.618201 37.753254 C 92.736123 39.223385 92.344088 41.379576 92.344088 44.221827 C 92.344088 47.358105 92.932140 50.396374 94.108245 53.532652 C 93.520192 54.512738 91.560019 55.198799 89.697854 55.198799 C 88.619759 55.198799 88.129715 55.100790 87.639672 54.708756 C 82.935255 47.652131 77.642787 42.359662 70.684170 36.087107 C 73.428413 44.417845 75.878630 49.416287 79.406943 53.532652 C 77.838804 55.394817 73.232396 57.649016 69.606075 58.237068 C 68.037936 56.668929 66.861832 54.610747 65.195684 50.592391 C 60.491268 39.419402 54.708756 20.797753 53.434643 13.153076 Z M 95.382357 17.759484 C 95.382357 11.976972 101.556904 9.428746 102.536991 9.428746 C 103.125043 9.428746 103.125043 10.310824 103.125043 12.663033 C 103.223052 15.505284 104.693182 19.719658 106.065303 23.345979 C 109.397598 31.970742 111.161755 38.929359 117.140284 45.593949 C 114.592058 49.416287 110.181668 51.572478 108.025477 52.062521 C 102.144956 49.122261 99.302704 38.929359 98.714652 36.381133 C 96.166427 24.620092 95.382357 20.013684 95.382357 17.759484 Z M 129.783403 48.730226 C 124.784961 36.675159 121.158640 23.443987 121.158640 17.073423 C 121.158640 12.467015 128.607299 6.880521 135.075872 6.684503 C 137.232063 6.880521 144.288688 11.584937 145.758818 13.839137 C 145.660809 14.231172 145.366783 14.819224 145.072757 15.309267 C 142.328514 13.153076 138.702193 11.584937 134.781846 11.094894 C 132.723664 11.388920 131.547560 12.957059 131.547560 15.897319 C 131.547560 23.934031 135.467907 36.675159 141.936480 49.220270 C 146.444879 49.318278 150.463235 50.004339 153.599512 51.180443 C 153.599512 52.258539 153.109469 53.336634 152.521417 53.924686 C 149.777174 53.630660 147.032931 53.532652 144.484705 53.532652 C 147.718992 59.021138 150.169209 62.843476 154.089556 67.743910 C 152.815443 69.214040 146.542887 71.272222 143.896653 71.272222 C 141.740462 70.096118 136.055959 61.667372 132.135612 53.924686 C 129.489377 54.022695 126.353100 54.316721 122.922796 54.512738 C 122.922796 52.748582 123.608857 49.514296 124.196909 48.730226 M 164.282458 48.730226 C 159.284016 36.675159 155.657695 23.443987 155.657695 17.073423 C 155.657695 12.467015 163.106354 6.880521 169.574927 6.684503 C 171.731118 6.880521 178.787743 11.584937 180.257873 13.839137 C 180.159864 14.231172 179.865838 14.819224 179.571812 15.309267 C 176.827569 13.153076 173.201248 11.584937 169.280901 11.094894 C 167.222719 11.388920 166.046614 12.957059 166.046614 15.897319 C 166.046614 23.934031 169.966962 36.675159 176.435534 49.220270 C 180.943934 49.318278 184.962289 50.004339 188.098567 51.180443 C 188.098567 52.258539 187.608524 53.336634 187.020472 53.924686 C 184.276229 53.630660 181.531986 53.532652 178.983760 53.532652 C 182.218046 59.021138 184.668263 62.843476 188.588611 67.743910 C 187.314498 69.214040 181.041942 71.272222 178.395708 71.272222 C 176.239517 70.096118 170.555014 61.667372 166.634667 53.924686 C 163.988432 54.022695 160.852155 54.316721 157.421851 54.512738 C 157.421851 52.748582 158.107912 49.514296 158.695964 48.730226 Z M 222.499613 51.768495 C 219.853379 55.100790 217.011127 56.962955 214.070867 57.354990 C 201.133721 57.354990 186.432420 38.439315 186.432420 22.365892 C 186.432420 14.525198 191.724888 8.350651 200.741687 7.370564 C 206.916233 8.742686 214.462902 14.329180 220.343422 22.071866 C 219.853379 22.659918 219.363336 23.149961 218.677275 23.738013 C 214.560910 19.327623 207.798312 12.270998 200.741687 12.270998 C 197.017357 12.270998 196.233287 16.779397 196.233287 20.111692 C 196.233287 20.993770 196.331296 21.875849 196.331296 22.659918 C 212.992771 29.324508 221.519526 35.695072 222.499613 51.768495 Z M 215.737014 48.534209 C 215.246971 39.615419 207.504285 31.578708 197.115366 26.384248 C 200.251643 38.537324 208.582381 47.554122 215.737014 48.534209 Z M 224.655804 13.153076 C 225.537882 11.192903 230.340308 8.056625 232.692516 7.860607 C 236.514854 25.894204 240.729227 32.852820 253.078321 41.379576 C 254.352434 37.557237 257.292694 34.126933 260.821007 32.362777 C 262.781180 34.322951 264.741354 36.969185 264.839362 37.753254 C 263.957284 39.223385 263.565250 41.379576 263.565250 44.221827 C 263.565250 47.358105 264.153302 50.396374 265.329406 53.532652 C 264.741354 54.512738 262.781180 55.198799 260.919015 55.198799 C 259.840920 55.198799 259.350876 55.100790 258.860833 54.708756 C 254.156416 47.652131 248.863948 42.359662 241.905332 36.087107 C 244.649575 44.417845 247.099792 49.416287 250.628104 53.532652 C 249.059965 55.394817 244.453557 57.649016 240.827236 58.237068 C 239.259097 56.668929 238.082993 54.610747 236.416846 50.592391 C 231.712429 39.419402 225.929917 20.797753 224.655804 13.153076 Z M 300.318504 50.200357 C 299.534435 53.238626 291.987766 60.883303 289.047506 61.667372 C 282.186898 60.197242 276.110360 52.650574 276.110360 45.691957 C 276.110360 40.203471 279.148629 34.518968 279.148629 27.854378 C 267.779623 27.070308 258.958842 18.641562 258.958842 8.644677 C 260.036937 5.018356 264.545336 1.294026 268.269666 1.000000 C 278.756595 2.078095 285.127159 9.134720 285.127159 20.013684 C 285.127159 21.581822 285.029150 22.561909 285.029150 23.541996 C 285.029150 25.012126 285.519194 25.208144 291.595732 26.580265 C 291.791749 26.776282 291.987766 27.364334 291.987766 27.854378 C 291.987766 28.344421 291.987766 28.442430 291.889758 28.638447 C 289.831575 28.638447 287.773393 28.540439 285.029150 28.442430 C 284.931141 28.638447 284.931141 28.834465 284.931141 29.618534 C 284.931141 42.163645 287.773393 48.926244 292.967853 48.926244 C 294.339975 48.926244 295.320061 47.554122 295.320061 45.691957 C 295.320061 44.123819 293.751922 41.183558 293.751922 40.399489 C 293.849931 39.517411 294.241966 39.027367 295.026035 38.929359 C 297.084218 38.929359 300.024478 45.201914 300.318504 50.200357 Z M 267.975640 5.508399 C 266.701527 6.390477 266.015466 7.566581 266.015466 9.036712 C 266.015466 13.545111 274.444213 22.071866 279.540664 22.757927 C 279.540664 15.995328 274.248195 8.056625 267.975640 5.508399 Z" transform="scale(1.000000,1.000000) translate(154.594238,32.727482)" fill="#f2f4f4" opacity="1.000000"></path>
    </g>
</svg>