<?xml version="1.0" encoding="UTF-8" standalone="yes"?>
<!DOCTYPE svg PUBLIC "-//W3C//DTD SVG 1.1//EN" "http://www.w3.org/Graphics/SVG/1.1/DTD/svg11.dtd">

<svg width="250" height="250" viewBox="0 0 250 250" xmlns="http://www.w3.org/2000/svg" xmlns:xlink="http://www.w3.org/1999/xlink" version="1.1" baseProfile="full">
    <g transform="scale(1,-1) translate(0,-250)">
        <path d="M 93.703106 1.029481 L 96.021006 1.117581 L 98.323706 1.263481 L 100.610406 1.466481 L 102.880506 1.725981 L 105.133106 2.041181 L 107.367606 2.411481 L 109.583406 2.835981 L 111.779606 3.314081 L 113.955606 3.845081 L 116.110606 4.428181 L 118.244006 5.062881 L 120.355006 5.748181 L 122.443006 6.483581 L 124.507206 7.268381 L 126.546906 8.101681 L 128.561406 8.982981 L 130.549906 9.911481 L 132.511906 10.886481 L 134.446506 11.907181 L 136.353106 12.972981 L 138.231006 14.083181 L 140.079406 15.237081 L 141.897606 16.433781 L 143.685006 17.672881 L 145.440706 18.953381 L 147.164206 20.274781 L 148.854606 21.636181 L 150.511406 23.037081 L 152.133706 24.476581 L 153.720906 25.954081 L 155.272206 27.468881 L 156.787006 29.020181 L 158.264506 30.607381 L 159.704106 32.229681 L 161.104906 33.886481 L 162.466406 35.576881 L 163.787706 37.300381 L 165.068306 39.056181 L 166.307306 40.843481 L 167.504106 42.661681 L 168.657906 44.510081 L 169.768106 46.387981 L 170.833906 48.294581 L 171.854706 50.229181 L 172.829606 52.191181 L 173.758106 54.179781 L 174.639406 56.194281 L 175.472806 58.233881 L 176.257506 60.298081 L 176.992906 62.386081 L 177.678306 64.497081 L 178.312906 66.630481 L 178.896106 68.785581 L 179.427006 70.961481 L 179.905106 73.157681 L 180.329706 75.373481 L 180.699906 77.607981 L 181.015106 79.860681 L 181.274606 82.130681 L 181.477606 84.417381 L 181.623606 86.720081 L 181.711606 89.038081 L 181.741206 91.370581 L 181.711606 93.703081 L 181.623606 96.020981 L 181.575306 96.782181 L 173.046106 81.571981 L 164.761906 68.736181 L 156.239506 60.004681 L 147.509406 52.507981 L 138.571706 46.246381 L 129.426306 41.219581 L 120.073306 37.427881 L 110.512706 34.870981 L 100.744406 33.549081 L 90.768406 33.462081 L 82.909106 35.121681 L 74.897106 37.623181 L 66.732306 40.966381 L 58.414706 45.151581 L 58.851906 46.058181 L 52.724406 49.571381 L 53.039606 50.152681 L 52.876206 50.755181 L 51.113606 52.024081 L 49.753706 52.679781 L 50.409406 54.039681 L 47.341606 56.077481 L 42.671206 60.005581 L 43.545406 61.818681 L 39.012506 64.004381 L 39.922206 65.311581 L 39.089506 66.481281 L 37.811606 67.306981 L 37.492106 67.513381 L 37.412206 67.564981 L 37.385606 67.582181 L 36.025806 68.237881 L 36.618706 70.047081 L 36.212006 70.941481 L 34.852106 71.597181 L 35.785106 73.242381 L 35.491706 74.082181 L 34.585106 74.519381 L 35.822606 76.506581 L 35.536306 78.809481 L 34.698606 82.286081 L 34.516506 83.211881 L 33.549206 83.957681 L 35.330106 85.333681 L 35.885706 87.789381 L 35.803806 91.530081 L 35.605606 97.491781 L 38.198206 108.951581 L 42.268106 119.419781 L 46.974806 127.660481 L 52.570906 134.704081 L 59.056306 140.550681 L 66.431106 145.200281 L 72.254106 146.975581 L 77.965506 148.193481 L 83.565306 148.854181 L 89.053506 148.957581 L 94.430206 148.503781 L 99.695306 147.492681 L 104.848906 145.924381 L 109.890906 143.798781 L 114.314506 141.386481 L 118.519506 138.520881 L 122.146606 134.764181 L 125.046606 130.694681 L 127.219606 126.312381 L 128.665706 121.617081 L 129.384706 116.608881 L 129.376706 111.287881 L 128.641706 105.653981 L 127.179706 99.707081 L 124.605906 93.789981 L 120.535706 88.245381 L 114.969106 83.073081 L 107.905906 78.273181 L 101.294106 77.306081 L 95.146806 77.302181 L 89.463906 78.261581 L 84.245506 80.184181 L 80.810406 82.329381 L 77.757806 85.267781 L 76.399306 87.302081 L 75.184906 90.069881 L 73.188806 97.806381 L 76.329706 106.348081 L 79.729606 112.530281 L 83.388506 116.352781 L 85.315006 117.379281 L 87.306306 117.815781 L 89.838306 116.839281 L 91.339306 115.172781 L 91.809306 112.816281 L 91.248106 109.769681 L 88.715906 104.880081 L 87.271406 100.653281 L 86.914606 97.089081 L 87.645606 94.187681 L 90.772306 92.453081 L 93.790306 91.434381 L 96.699506 91.131481 L 99.500006 91.544481 L 102.025806 92.474081 L 104.111006 93.720781 L 105.755506 95.284781 L 106.933506 97.125681 L 106.917806 97.120581 L 106.906806 97.148681 L 106.902406 97.210881 L 106.950306 97.798881 L 107.360106 100.604081 L 109.436706 112.731781 L 106.650806 117.671581 L 103.627106 121.538881 L 100.365506 124.333581 L 96.866206 126.055781 L 92.042506 127.185781 L 87.519506 127.454881 L 83.297306 126.863281 L 79.375806 125.410781 L 75.755106 123.097481 L 72.435106 119.923381 L 69.415806 115.888381 L 66.697306 110.992581 L 64.439206 104.643981 L 63.347806 97.383681 L 63.422906 89.211781 L 64.664706 80.128081 L 69.285506 73.779781 L 74.843306 68.795381 L 81.338106 65.174881 L 88.769906 62.918281 L 95.756506 62.273081 L 102.494206 63.284181 L 108.983106 65.951681 L 115.223206 70.275581 L 123.318006 78.663281 L 134.262206 92.381281 L 140.913406 109.216881 L 143.338206 117.178581 L 145.162506 124.836281 L 146.386206 132.189881 L 147.009506 139.239481 L 147.032106 145.984981 L 146.454306 152.426581 L 146.915006 162.657381 L 145.440706 163.787681 L 143.685006 165.068281 L 141.897606 166.307281 L 140.079406 167.504081 L 138.231006 168.657881 L 136.353106 169.768081 L 134.446506 170.833881 L 132.511906 171.854681 L 130.549906 172.829681 L 128.561406 173.758081 L 126.546906 174.639381 L 124.507206 175.472781 L 122.443006 176.257481 L 120.355006 176.992881 L 118.244006 177.678281 L 116.110606 178.312881 L 113.955606 178.896081 L 111.779606 179.427081 L 109.583406 179.905181 L 107.367606 180.329681 L 105.133106 180.699881 L 102.880506 181.015081 L 100.610406 181.274581 L 98.323706 181.477681 L 96.021006 181.623581 L 93.703106 181.711681 L 91.370606 181.741181 L 89.038006 181.711681 L 86.720106 181.623581 L 84.417406 181.477681 L 82.130706 181.274581 L 79.860606 181.015081 L 77.608006 180.699881 L 75.373506 180.329681 L 73.157706 179.905181 L 70.961506 179.427081 L 68.785506 178.896081 L 66.630506 178.312881 L 64.497106 177.678281 L 62.386106 176.992881 L 60.298106 176.257481 L 58.233906 175.472781 L 56.194206 174.639381 L 54.179706 173.758081 L 52.191206 172.829681 L 50.229206 171.854681 L 48.294606 170.833881 L 46.388006 169.768081 L 44.510106 168.657881 L 42.661706 167.504081 L 40.843506 166.307281 L 39.056106 165.068281 L 37.300406 163.787681 L 35.576906 162.466381 L 33.886506 161.104881 L 32.229706 159.704081 L 30.607406 158.264481 L 29.020206 156.786981 L 27.468906 155.272181 L 25.954106 153.720881 L 24.476606 152.133681 L 23.037106 150.511381 L 21.636206 148.854681 L 20.274706 147.164181 L 18.953406 145.440781 L 17.672806 143.684981 L 16.433806 141.897581 L 15.237006 140.079381 L 14.083206 138.230981 L 12.973006 136.353181 L 11.907206 134.446581 L 10.886406 132.511881 L 9.911506 130.549981 L 8.983006 128.561381 L 8.101706 126.546881 L 7.268406 124.507181 L 6.483606 122.442981 L 5.748206 120.355081 L 5.062806 118.243981 L 4.428206 116.110581 L 3.845106 113.955581 L 3.314106 111.779581 L 2.836006 109.583381 L 2.411406 107.367681 L 2.041206 105.133081 L 1.726006 102.880481 L 1.466506 100.610381 L 1.263506 98.323681 L 1.117506 96.020981 L 1.029506 93.703081 L 0.999906 91.370581 L 1.029506 89.038081 L 1.117506 86.720081 L 1.263506 84.417381 L 1.466506 82.130681 L 1.726006 79.860681 L 2.041206 77.607981 L 2.411406 75.373481 L 2.836006 73.157681 L 3.314106 70.961481 L 3.845106 68.785581 L 4.428206 66.630481 L 5.062806 64.497081 L 5.748206 62.386081 L 6.483606 60.298081 L 7.268406 58.233881 L 8.101706 56.194281 L 8.983006 54.179781 L 9.911506 52.191181 L 10.886406 50.229181 L 11.907206 48.294581 L 12.973006 46.387981 L 14.083206 44.510081 L 15.237006 42.661681 L 16.433806 40.843481 L 17.672806 39.056181 L 18.953406 37.300381 L 20.274706 35.576881 L 21.636206 33.886481 L 23.037106 32.229681 L 24.476606 30.607381 L 25.954106 29.020181 L 27.468906 27.468881 L 29.020206 25.954081 L 30.607406 24.476581 L 32.229706 23.037081 L 33.886506 21.636181 L 35.576906 20.274781 L 37.300406 18.953381 L 39.056106 17.672881 L 40.843506 16.433781 L 42.661706 15.237081 L 44.510106 14.083181 L 46.388006 12.972981 L 48.294606 11.907181 L 50.229206 10.886481 L 52.191206 9.911481 L 54.179706 8.982981 L 56.194206 8.101681 L 58.233906 7.268381 L 60.298106 6.483581 L 62.386106 5.748181 L 64.497106 5.062881 L 66.630506 4.428181 L 68.785506 3.845081 L 70.961506 3.314081 L 73.157706 2.835981 L 75.373506 2.411481 L 77.608006 2.041181 L 79.860606 1.725981 L 82.130706 1.466481 L 84.417406 1.263481 L 86.720106 1.117581 L 89.038006 1.029481 L 91.370606 0.999981 Z" transform="scale(1.000000,1.000000) translate(33.449894,36.684119)" opacity="1.000000"></path>
        <path d="M 231.510589 118.755294 C 231.510589 181.028324 181.028324 231.510589 118.755294 231.510589 C 56.482265 231.510589 6.000000 181.028324 6.000000 118.755294 C 6.000000 56.482265 56.482265 6.000000 118.755294 6.000000 C 181.028324 6.000000 231.510589 56.482265 231.510589 118.755294 Z M 236.510589 118.755294 C 236.510589 53.720841 183.789748 1.000000 118.755294 1.000000 C 53.720841 1.000000 1.000000 53.720841 1.000000 118.755294 C 1.000000 183.789748 53.720841 236.510589 118.755294 236.510589 C 183.789748 236.510589 236.510589 183.789748 236.510589 118.755294 Z" transform="scale(1.000000,1.000000) translate(6.640151,7.518014)" opacity="1.000000"></path>
    </g>
</svg>